<svg width="232" height="236" viewBox="0 0 232 236" fill="none" xmlns="http://www.w3.org/2000/svg">
<g clip-path="url(#clip0)">
<path d="M13.3008 128.819L6.87974 131.032L0 170.72L4.12784 169.346L6.57397 155.303L8.86722 154.54C11.4662 153.7 13.6066 152.097 15.2883 149.808C16.97 147.518 18.2695 144.007 19.1104 139.199L19.1868 138.893C20.0277 134.085 19.8748 131.032 18.8046 129.658C17.7344 128.208 15.8998 127.979 13.3008 128.819ZM14.9061 141.259C13.9124 146.831 12.1542 150.036 9.47875 150.952L7.1855 151.716L10.396 133.245L12.6893 132.482C15.3647 131.566 16.2056 133.932 15.2119 139.504L14.9061 141.259Z" fill="black"/>
<path d="M33.0992 121.339C30.5002 122.255 28.3598 123.781 26.6017 126.147C24.92 128.437 23.6205 132.024 22.7796 136.833L20.0277 152.86C19.1869 157.669 19.3397 160.722 20.4099 162.096C21.4801 163.469 23.3147 163.698 25.9137 162.783C28.5127 161.867 30.6531 160.34 32.4112 157.974C34.093 155.684 35.3925 152.097 36.2333 147.289L38.9852 131.261C39.8261 126.453 39.6732 123.4 38.603 122.026C37.5328 120.652 35.6982 120.423 33.0992 121.339ZM31.9526 149.502C31.0353 154.921 29.2007 158.127 26.5252 159.043C25.2257 159.501 24.3849 159.195 23.8498 158.279C23.3147 157.364 23.3911 155.303 23.9262 152.25L26.9839 134.543C27.519 131.414 28.2834 129.2 29.1243 127.75C30.0416 126.376 31.1117 125.384 32.4112 125.002C35.0867 124.087 35.9275 126.376 34.9338 131.795L31.9526 149.502Z" fill="black"/>
<path d="M66.8863 131.108L74.9127 128.361L75.5242 124.773L67.4979 127.521L70.0204 113.02L78.8112 110.043L79.4992 106.379L66.5041 110.806L59.6244 150.494L72.6959 146.068L73.3839 142.404L64.3638 145.457L66.8863 131.108Z" fill="black"/>
<path d="M84.6973 128.742L86.9905 127.979C89.5895 127.139 91.7299 125.537 93.4116 123.247C95.0933 120.957 96.3928 117.446 97.2337 112.638L97.3101 112.333C98.151 107.524 97.9981 104.471 96.9279 103.098C95.8577 101.724 94.0231 101.495 91.4241 102.334L85.003 104.471L78.1233 144.16L82.2511 142.786L84.6973 128.742ZM88.5193 106.761L90.8126 105.998C93.488 105.082 94.3289 107.448 93.3352 113.02L93.0294 114.775C92.0356 120.347 90.2775 123.552 87.602 124.468L85.3088 125.231L88.5193 106.761Z" fill="black"/>
<path d="M50.9865 129.353L48.6933 130.116L50.5279 119.66L58.7836 116.836L59.3951 113.172L51.1394 115.996L47.9289 117.065L47.0116 117.37L40.1318 157.058L46.5529 154.921C49.1519 154.082 51.2923 152.479 52.974 150.113C54.6557 147.823 55.9552 144.236 56.7961 139.428L56.8725 139.122C57.7134 134.314 57.5605 131.261 56.4903 129.887C55.3437 128.666 53.5091 128.437 50.9865 129.353ZM52.5154 141.641C51.5216 147.213 49.7635 150.418 47.088 151.334L44.7948 152.097L48.0053 133.627L50.2986 132.864C52.974 131.948 53.8149 134.314 52.8211 139.885L52.5154 141.641Z" fill="black"/>
<path d="M99.2975 137.061L103.349 135.688L109.617 99.5867L114.662 97.9075L115.274 94.244L101.209 99.0524L100.521 102.64L105.566 100.96L99.2975 137.061Z" fill="black"/>
<path d="M83.0155 153.166L76.5945 155.303L69.7147 194.991L73.8426 193.617L76.2887 179.574L78.5819 178.81C81.1809 177.971 83.3213 176.368 85.003 174.078C86.6847 171.789 87.9842 168.278 88.8251 163.469L88.9015 163.164C89.7424 158.356 89.5895 155.303 88.5193 153.929C87.4491 152.555 85.6145 152.326 83.0155 153.166ZM84.6208 165.53C83.6271 171.102 81.8689 174.307 79.1935 175.223L76.9002 175.986L80.1108 157.516L82.404 156.753C85.0795 155.837 85.9203 158.203 84.9266 163.775L84.6208 165.53Z" fill="black"/>
<path d="M98.1509 167.286L96.9279 148.434L92.9529 149.808L95.1697 173.926L89.5131 188.351L93.488 186.977L99.1447 172.552L110.534 143.854L106.483 145.228L98.1509 167.286Z" fill="black"/>
<path d="M117.567 174.765C116.803 175.986 115.809 176.75 114.586 177.208C113.363 177.589 112.522 177.36 112.063 176.444C111.605 175.529 111.681 173.468 112.216 170.415L115.274 152.86C115.809 149.655 116.497 147.365 117.414 145.991C118.255 144.541 119.249 143.702 120.395 143.32C121.542 142.938 122.306 143.091 122.689 143.854C123.071 144.618 123.224 146.144 122.994 148.51L126.969 146.22C127.275 142.938 126.969 140.801 125.976 139.885C124.982 138.97 123.3 138.893 121.007 139.733C118.714 140.496 116.65 142.099 114.968 144.389C113.286 146.678 111.987 150.342 111.146 155.303L108.47 170.72C107.63 175.681 107.706 178.81 108.776 180.261C109.846 181.634 111.528 181.94 113.898 181.176C116.268 180.413 118.179 179.039 119.707 177.055C121.236 175.071 122.459 172.17 123.453 168.201L119.937 168.888C119.096 171.483 118.331 173.544 117.567 174.765Z" fill="black"/>
<path d="M129.186 140.954L134.231 139.199L127.963 175.3L132.015 173.926L138.283 137.825L143.328 136.146L143.939 132.482L129.874 137.29L129.186 140.954Z" fill="black"/>
<path d="M152.042 129.734L138.512 171.712L142.64 170.339L146.003 159.501L153.265 157.058L153.036 166.828L157.164 165.454L157.47 127.979L152.042 129.734ZM147.226 155.608L153.8 134.543L153.342 153.547L147.226 155.608Z" fill="black"/>
<path d="M174.057 148.205L174.44 122.178L168.171 124.315L161.292 164.004L165.267 162.63L171.535 126.758L171.153 152.631L175.739 151.105L184.912 122.255L178.644 158.127L182.695 156.753L189.575 116.988L183.307 119.125L174.057 148.205Z" fill="black"/>
<path d="M196.684 117.141C195.002 119.431 193.703 122.865 192.938 127.445L192.862 127.75C191.868 133.474 192.48 136.68 194.773 137.367L187.664 155.074L191.868 153.624L198.519 137.062L201.041 136.222L198.366 151.41L202.494 150.036L209.373 110.348L202.952 112.485C200.506 113.325 198.366 114.851 196.684 117.141ZM201.729 132.635L199.436 133.398C196.76 134.314 195.92 132.1 196.837 126.91L197.143 125.231C197.678 122.331 198.366 120.194 199.283 118.82C200.2 117.446 201.271 116.53 202.494 116.149L204.787 115.386L201.729 132.635Z" fill="black"/>
<path d="M227.872 104.013L224.738 122.102L216.941 124.773L220.075 106.685L215.947 108.059L209.068 147.747L213.195 146.373L216.329 128.361L224.126 125.766L220.992 143.702L225.044 142.328L232 102.64L227.872 104.013Z" fill="black"/>
<path d="M56.6432 82.9482L71.4728 16.0888L112.293 0.0608521L104.648 33.0326L67.2686 57.6851L67.1157 58.5246L165.343 20.2103L158.463 48.5263L125.593 65.5464L125.517 66.0807L217.17 42.7257L216.941 43.7179L116.038 88.1382L125.593 46.0839L56.6432 82.9482Z" fill="#FF7300"/>
<path d="M104.495 200.105L103.502 200.41L104.266 196.136L107.782 194.991L108.088 193.541L104.572 194.686L103.196 195.144L102.814 195.296L99.7561 211.553L102.432 210.714C103.502 210.332 104.419 209.721 105.183 208.806C105.948 207.89 106.483 206.44 106.789 204.455V204.302C107.171 202.318 107.094 201.097 106.636 200.486C106.33 199.876 105.566 199.799 104.495 200.105ZM105.107 205.218C104.648 207.508 103.884 208.806 102.814 209.187L101.82 209.492L103.196 201.936L104.19 201.631C105.336 201.25 105.642 202.242 105.26 204.531L105.107 205.218Z" fill="black"/>
<path d="M142.105 182.55L138.512 191.633L138.053 183.848L136.372 184.458L137.212 194.304L134.766 200.257L136.525 199.647L138.894 193.77L143.786 182.016L142.105 182.55Z" fill="black"/>
<path d="M27.4425 220.941L29.5828 220.254L26.8309 235.061L28.5126 234.45L31.2645 219.72L33.4049 219.033L33.7107 217.506L27.7482 219.491L27.4425 220.941Z" fill="black"/>
<path d="M38.0678 216.133L35.3924 216.972L32.3347 233.229L34.0929 232.695L35.1631 226.971L36.1568 226.665C37.227 226.284 38.1443 225.673 38.9087 224.757C39.6731 223.841 40.2082 222.391 40.514 220.407V220.254C40.8962 218.27 40.8197 217.049 40.3611 216.438C39.9024 215.904 39.138 215.751 38.0678 216.133ZM38.6794 221.17C38.2207 223.46 37.4563 224.757 36.3861 225.139L35.3924 225.444L36.7683 217.888L37.7621 217.583C38.9087 217.201 39.2144 218.193 38.8322 220.483L38.6794 221.17Z" fill="black"/>
<path d="M43.3424 222.773L46.7822 221.704L47.0115 220.178L43.6481 221.323L44.7183 215.369L48.4639 214.148L48.7697 212.698L43.2659 214.454L40.2083 230.71L45.7885 228.879L46.0942 227.429L42.2722 228.65L43.3424 222.773Z" fill="black"/>
<path d="M54.7321 217.735L51.4451 218.728L52.821 211.324L51.1393 211.935L48.0817 228.192L49.8398 227.581L51.2158 220.254L54.5028 219.186L53.1268 226.589L54.885 225.978L57.8662 209.721L56.1845 210.256L54.7321 217.735Z" fill="black"/>
<path d="M79.1169 218.193L80.8751 217.583L83.627 202.852L86.914 201.784L84.1621 216.514L85.8438 215.98L88.9015 199.723L82.0982 201.936L79.1169 218.193Z" fill="black"/>
<path d="M60.6945 217.201L64.1344 216.056L64.3637 214.606L61.0003 215.675L62.0704 209.798L65.8161 208.577L66.1218 207.05L60.6181 208.882L57.6368 225.139L63.1406 223.307L63.4464 221.857L59.6243 223.078L60.6945 217.201Z" fill="black"/>
<path d="M71.1671 205.447L68.4916 206.287L65.434 222.544L67.1921 222.01L68.2623 216.285L69.256 215.98C70.3262 215.598 71.2435 214.988 72.0079 214.072C72.7723 213.156 73.3074 211.706 73.6132 209.721V209.569C73.9954 207.584 73.919 206.363 73.4603 205.753C73.0017 205.218 72.2373 205.066 71.1671 205.447ZM71.7786 210.561C71.32 212.851 70.5555 214.148 69.4854 214.53L68.4916 214.835L69.8676 207.279L70.8613 206.974C72.0079 206.592 72.3137 207.584 71.9315 209.874L71.7786 210.561Z" fill="black"/>
<path d="M94.0231 197.739C92.9529 198.12 92.0356 198.731 91.2712 199.647C90.5068 200.563 89.9717 202.013 89.6659 203.997L88.4428 210.561C88.0606 212.545 88.1371 213.767 88.5957 214.377C89.0544 214.911 89.8188 215.064 90.889 214.683C91.9592 214.301 92.8765 213.69 93.6409 212.774C94.4053 211.859 94.9404 210.408 95.2461 208.424L96.4692 201.86C96.8514 199.876 96.775 198.655 96.3163 198.044C95.9341 197.51 95.1697 197.357 94.0231 197.739ZM93.488 209.264C93.1058 211.477 92.3414 212.774 91.1947 213.156C90.6597 213.309 90.2774 213.232 90.0481 212.851C89.8188 212.469 89.8188 211.63 90.1246 210.332L91.5005 203.081C91.7298 201.784 92.0356 200.868 92.4178 200.334C92.8 199.723 93.2587 199.418 93.7938 199.189C94.9404 198.807 95.2461 199.799 94.8639 202.013L93.488 209.264Z" fill="black"/>
<path d="M114.509 191.175C113.439 191.556 112.522 192.167 111.757 193.083C110.993 193.999 110.458 195.449 110.152 197.433L108.929 203.997C108.547 205.982 108.623 207.203 109.082 207.813C109.541 208.348 110.305 208.5 111.375 208.119C112.445 207.737 113.363 207.126 114.127 206.211C114.892 205.295 115.427 203.845 115.732 201.86L116.956 195.296C117.338 193.312 117.261 192.091 116.803 191.48C116.344 190.87 115.58 190.793 114.509 191.175ZM113.974 202.7C113.592 204.913 112.828 206.211 111.681 206.592C111.146 206.745 110.764 206.669 110.534 206.287C110.305 205.905 110.305 205.066 110.611 203.768L111.987 196.517C112.216 195.22 112.522 194.304 112.904 193.77C113.286 193.159 113.745 192.854 114.28 192.625C115.427 192.243 115.732 193.236 115.35 195.449L113.974 202.7Z" fill="black"/>
<path d="M126.969 187.435L125.288 187.969L120.778 195.907L122.077 189.038L120.319 189.572L117.261 205.829L119.019 205.295L120.09 199.418L121.083 197.739L122.383 204.226L124.141 203.692L122.383 195.525L126.969 187.435Z" fill="black"/>
<path d="M130.103 200.028C129.798 200.486 129.339 200.868 128.88 201.021C128.345 201.173 128.04 201.097 127.81 200.715C127.657 200.334 127.657 199.494 127.887 198.273L129.263 191.099C129.492 189.801 129.798 188.885 130.18 188.275C130.562 187.664 130.944 187.359 131.403 187.206C131.862 187.053 132.167 187.13 132.397 187.435C132.55 187.74 132.626 188.351 132.473 189.343L134.155 188.427C134.308 187.053 134.155 186.214 133.773 185.832C133.39 185.451 132.626 185.451 131.709 185.756C130.715 186.061 129.874 186.672 129.186 187.664C128.498 188.58 127.887 190.106 127.504 192.091L126.358 198.426C125.976 200.486 125.976 201.784 126.434 202.318C126.893 202.852 127.581 203.005 128.575 202.7C129.568 202.394 130.409 201.784 131.021 201.021C131.632 200.257 132.167 199.036 132.626 197.357L131.174 197.662C130.715 198.731 130.409 199.57 130.103 200.028Z" fill="black"/>
</g>
<defs>
<clipPath id="clip0">
<rect width="232" height="235" fill="white" transform="translate(0 0.0608521)"/>
</clipPath>
</defs>
</svg>
