<?xml version="1.0" standalone="no"?>
<!DOCTYPE svg PUBLIC "-//W3C//DTD SVG 20010904//EN"
 "http://www.w3.org/TR/2001/REC-SVG-20010904/DTD/svg10.dtd">
<svg version="1.0" xmlns="http://www.w3.org/2000/svg"
 width="784.000000pt" height="784.000000pt" viewBox="0 0 784.000000 784.000000"
 preserveAspectRatio="xMidYMid meet">
<metadata>
Created by potrace 1.11, written by Peter Selinger 2001-2013
</metadata>
<g transform="translate(0.000000,784.000000) scale(0.100000,-0.100000)"
fill="#000000" stroke="none">
<path d="M7605 7302 c-221 -56 -400 -101 -425 -107 -8 -2 -179 -44 -380 -95
-201 -50 -378 -94 -395 -97 -16 -3 -38 -9 -48 -15 -10 -5 -21 -8 -23 -5 -3 2
-39 -6 -81 -19 -42 -13 -79 -22 -81 -19 -2 2 -16 -1 -31 -7 -14 -5 -33 -11
-41 -13 -13 -3 -48 -11 -120 -29 -8 -2 -62 -16 -120 -31 -58 -14 -116 -28
-130 -31 -14 -3 -34 -8 -45 -11 -11 -4 -24 -8 -30 -9 -5 -1 -66 -16 -135 -34
-69 -17 -134 -33 -145 -35 -11 -2 -56 -13 -100 -25 -44 -11 -88 -23 -98 -25
-10 -2 -27 -7 -37 -10 -10 -3 -27 -7 -37 -9 -10 -2 -83 -20 -163 -41 -80 -20
-156 -38 -170 -41 -14 -3 -34 -8 -45 -11 -11 -4 -24 -8 -30 -9 -5 -1 -83 -20
-172 -43 -89 -22 -170 -42 -180 -44 -10 -2 -38 -9 -63 -16 -25 -7 -53 -15 -63
-17 -10 -2 -27 -6 -37 -9 -10 -3 -27 -8 -37 -10 -15 -3 -114 -27 -288 -71 -11
-3 -32 -7 -47 -10 -14 -3 -56 -13 -92 -24 -36 -10 -66 -16 -66 -13 0 3 -7 0
-15 -7 -8 -7 -15 -10 -15 -7 0 3 -15 1 -32 -4 -18 -6 -44 -12 -58 -15 -14 -3
-43 -10 -65 -16 -22 -5 -40 -9 -40 -8 0 1 -13 -3 -28 -9 -15 -6 -40 -13 -55
-16 -39 -7 -60 -12 -124 -29 -31 -8 -67 -17 -80 -20 -12 -3 -38 -9 -56 -15
-18 -5 -33 -10 -35 -9 -1 0 -20 -5 -42 -10 -22 -6 -52 -13 -67 -16 -15 -2 -31
-7 -36 -10 -5 -3 -19 -7 -33 -9 -13 -3 -42 -10 -64 -15 -22 -6 -51 -13 -65
-16 -14 -3 -52 -13 -85 -21 -33 -9 -71 -18 -85 -21 -14 -3 -59 -14 -100 -25
-41 -12 -86 -23 -100 -25 -14 -3 -43 -10 -65 -16 -22 -6 -44 -11 -50 -12 -5
-1 -19 -5 -30 -9 -11 -3 -31 -8 -45 -11 -14 -3 -43 -10 -65 -16 -38 -10 -53
-14 -100 -24 -11 -3 -45 -12 -77 -20 -31 -8 -67 -17 -80 -20 -12 -3 -65 -16
-116 -29 -50 -14 -92 -23 -92 -21 0 3 -9 0 -21 -6 -11 -7 -33 -14 -47 -16 -15
-2 -108 -24 -207 -49 -99 -25 -191 -48 -205 -51 -41 -10 -43 -10 -85 -22 -22
-6 -51 -13 -65 -16 -34 -7 -192 -47 -210 -53 -8 -3 -24 -7 -35 -9 -11 -1 -83
-19 -160 -39 -149 -38 -161 -41 -213 -51 -22 -4 -37 -15 -48 -35 -8 -16 -14
-31 -14 -34 -1 -3 -2 -10 -5 -17 -2 -7 -16 -49 -31 -92 -14 -43 -27 -84 -29
-90 -1 -6 -4 -18 -7 -26 -27 -72 -63 -177 -64 -185 -1 -5 -47 -144 -102 -307
-61 -181 -96 -298 -89 -298 7 0 109 32 227 71 118 39 220 72 225 73 6 1 35 11
65 21 30 11 57 20 60 20 3 0 106 34 230 75 124 40 230 75 235 76 6 1 109 35
230 75 121 40 225 74 230 75 6 1 127 41 270 88 143 47 263 86 267 86 4 0 19 5
35 12 15 6 30 12 33 13 37 11 96 29 100 30 14 3 118 38 135 45 18 8 404 133
415 135 3 0 30 9 60 20 30 10 60 20 65 21 6 1 66 21 135 44 69 23 130 43 135
45 6 1 17 5 25 8 8 3 80 26 160 52 80 26 152 49 160 52 8 3 20 7 25 8 22 6
333 108 383 126 28 10 53 19 55 18 2 0 30 8 55 18 9 3 19 7 22 7 9 2 91 28
270 87 96 31 330 108 520 169 190 62 419 137 510 167 91 30 170 56 175 57 13
3 605 195 625 203 8 4 18 7 23 8 4 2 8 3 10 5 1 1 9 3 17 5 8 1 92 28 185 60
94 31 177 58 185 60 8 2 65 20 125 40 61 20 115 38 120 39 6 2 17 6 25 9 8 3
53 17 100 32 47 15 92 29 100 32 8 3 20 7 25 8 8 2 353 114 465 151 8 3 15 5
15 4 0 0 34 11 75 26 41 14 80 27 85 29 6 1 17 5 25 8 8 3 32 11 53 17 20 6
37 15 38 18 1 9 5 89 13 258 4 100 3 131 -7 130 -6 0 -106 -24 -222 -54z"/>
<path d="M7750 5375 c-24 -8 -46 -12 -48 -10 -3 2 -13 0 -24 -6 -10 -5 -31
-12 -46 -15 -15 -2 -79 -18 -142 -34 -63 -17 -126 -33 -140 -36 -14 -3 -61
-14 -105 -25 -44 -12 -87 -22 -95 -24 -8 -2 -141 -36 -295 -75 -154 -39 -293
-73 -308 -76 -16 -2 -33 -6 -38 -9 -5 -4 -17 -8 -26 -10 -54 -11 -202 -47
-228 -55 -27 -9 -208 -54 -260 -66 -11 -2 -101 -25 -200 -50 -99 -25 -193 -47
-208 -49 -16 -3 -33 -7 -38 -10 -5 -4 -17 -8 -26 -10 -10 -2 -155 -38 -323
-80 -168 -42 -312 -78 -320 -80 -8 -2 -42 -10 -75 -19 -125 -31 -435 -109
-505 -126 -19 -5 -64 -16 -100 -25 -36 -10 -72 -18 -80 -20 -8 -1 -22 -5 -30
-8 -13 -4 -252 -65 -284 -72 -38 -8 -75 -17 -101 -25 -16 -5 -41 -11 -55 -14
-14 -3 -54 -13 -90 -22 -36 -9 -73 -17 -82 -18 -10 -1 -21 -5 -24 -9 -4 -4
-17 -7 -29 -7 -12 0 -25 -3 -28 -7 -4 -3 -17 -7 -29 -9 -13 -1 -88 -19 -168
-39 -80 -21 -152 -39 -160 -40 -8 -2 -15 -4 -15 -5 0 -1 -10 -3 -22 -6 -11 -2
-65 -15 -118 -29 -54 -14 -107 -27 -119 -30 -11 -2 -54 -13 -94 -24 -40 -10
-75 -20 -77 -20 -3 -1 -6 -1 -7 -2 -2 0 -10 -2 -18 -4 -13 -3 -78 -19 -120
-29 -59 -15 -268 -68 -280 -70 -9 -2 -81 -21 -160 -41 -80 -20 -156 -39 -170
-41 -14 -3 -48 -12 -76 -20 -28 -8 -61 -16 -73 -19 -11 -2 -49 -11 -84 -20
-34 -9 -69 -18 -78 -20 -8 -2 -107 -26 -220 -55 -112 -28 -211 -53 -219 -55
-87 -19 -237 -59 -246 -66 -6 -5 -13 -6 -16 -4 -3 3 -40 -4 -82 -15 -43 -12
-87 -24 -99 -26 -12 -2 -80 -19 -152 -37 l-129 -33 -24 -60 c-13 -32 -25 -66
-27 -74 -2 -8 -73 -224 -159 -478 -154 -461 -155 -464 -128 -458 15 4 135 42
267 85 132 44 436 143 675 221 239 78 452 148 473 156 20 7 37 11 37 8 0 -4 6
-1 13 5 8 6 17 8 20 4 4 -3 7 0 7 7 0 7 3 11 6 8 3 -4 38 5 77 19 40 13 77 26
82 27 10 2 639 208 815 266 169 56 585 192 595 195 6 1 23 7 38 13 16 7 35 12
43 12 8 0 22 4 32 10 9 5 145 50 302 101 157 50 303 98 325 106 22 8 47 16 56
18 9 2 58 18 110 35 52 18 99 33 104 34 6 2 17 6 25 9 21 8 214 71 220 72 10
2 637 207 688 226 28 10 54 19 57 19 6 1 30 8 53 17 9 3 19 7 22 7 10 2 100
31 270 88 96 32 183 60 193 63 28 6 208 65 247 80 19 8 89 31 155 51 66 20
125 41 131 46 7 5 16 8 20 6 5 -1 185 56 399 127 215 71 395 130 400 131 6 1
78 25 160 52 83 27 265 87 405 132 140 46 259 86 264 91 5 4 10 36 12 71 1 35
5 120 8 191 7 145 10 141 -84 112z"/>
<path d="M7705 3394 c-71 -18 -139 -36 -150 -38 -11 -2 -184 -45 -385 -96
-201 -50 -374 -93 -385 -96 -11 -2 -65 -15 -120 -30 -55 -14 -111 -28 -125
-30 -14 -3 -48 -12 -76 -20 -28 -8 -61 -17 -73 -19 -46 -10 -58 -13 -101 -25
-25 -7 -52 -13 -60 -15 -9 -2 -81 -20 -160 -40 -80 -20 -154 -38 -165 -41 -11
-2 -74 -18 -140 -35 -66 -17 -127 -33 -136 -34 -9 -2 -34 -8 -54 -14 -21 -6
-42 -8 -46 -5 -4 2 -10 0 -13 -5 -5 -7 -46 -19 -78 -22 -4 0 -22 -5 -40 -10
-18 -6 -40 -12 -48 -14 -8 -2 -53 -13 -100 -25 -47 -12 -98 -23 -113 -26 -15
-3 -52 -13 -82 -23 -30 -10 -52 -15 -50 -11 2 4 -21 -1 -51 -11 -31 -10 -59
-18 -62 -17 -4 1 -14 -2 -22 -5 -15 -6 -322 -83 -370 -93 -14 -3 -46 -11 -72
-19 -27 -8 -48 -12 -48 -10 0 3 -11 0 -25 -5 -14 -5 -36 -12 -48 -15 -12 -2
-49 -11 -82 -20 -33 -8 -69 -17 -80 -20 -11 -2 -56 -14 -100 -25 -103 -26
-127 -32 -145 -35 -8 -1 -22 -5 -30 -8 -8 -4 -73 -21 -145 -38 -71 -17 -137
-32 -145 -35 -51 -14 -139 -36 -160 -40 -14 -3 -50 -12 -80 -20 -30 -8 -68
-17 -84 -20 -16 -3 -40 -10 -54 -15 -14 -5 -27 -7 -30 -4 -3 2 -10 1 -16 -4
-6 -5 -38 -15 -71 -22 -71 -15 -73 -16 -80 -19 -3 -1 -13 -3 -22 -4 -10 -1
-22 -4 -28 -8 -5 -3 -27 -9 -48 -12 -21 -3 -47 -11 -58 -16 -10 -6 -19 -9 -19
-6 0 3 -21 -1 -47 -9 -27 -8 -59 -16 -73 -19 -14 -2 -70 -16 -125 -30 -55 -15
-113 -29 -129 -32 -16 -3 -32 -7 -36 -9 -3 -2 -17 -6 -31 -9 -13 -3 -69 -17
-124 -31 -55 -14 -111 -28 -125 -31 -14 -3 -70 -17 -125 -31 -54 -14 -104 -26
-110 -27 -5 -1 -19 -5 -30 -9 -11 -3 -31 -8 -45 -11 -14 -2 -54 -12 -90 -21
-36 -10 -71 -18 -77 -18 -7 0 -13 -4 -13 -9 0 -5 -3 -7 -8 -4 -4 2 -32 -2 -62
-10 -30 -9 -66 -17 -80 -20 -14 -3 -70 -17 -125 -31 -54 -14 -104 -26 -110
-27 -5 -1 -19 -5 -30 -9 -11 -3 -31 -8 -45 -11 -14 -2 -63 -14 -110 -26 -47
-12 -92 -24 -100 -26 -8 -2 -33 -8 -55 -14 -22 -6 -51 -13 -65 -16 -14 -3 -95
-23 -180 -45 -85 -21 -165 -41 -178 -44 -32 -7 -53 -13 -89 -24 -17 -5 -34 -7
-36 -4 -10 9 -26 -34 -176 -487 -84 -250 -154 -461 -156 -468 -2 -7 -5 -14 -5
-17 -1 -2 -10 -27 -20 -54 -20 -56 -18 -64 13 -51 12 5 108 36 212 70 105 34
197 64 205 67 8 3 20 7 26 8 6 2 184 59 395 128 351 115 424 138 439 142 3 1
12 5 20 8 8 3 42 15 75 25 237 77 821 267 869 284 32 11 63 21 70 23 6 1 19 5
28 9 9 4 22 9 30 10 7 2 20 6 28 9 8 3 177 58 375 122 198 64 380 123 405 131
56 19 75 26 75 24 0 0 53 17 118 39 64 22 117 37 117 34 0 -3 6 -1 13 4 14 12
71 32 107 39 13 3 30 10 37 16 7 6 13 8 13 4 0 -3 30 5 68 18 67 24 408 136
427 141 6 1 17 5 25 8 20 7 154 51 160 52 4 1 511 166 715 233 44 15 82 27 85
27 7 1 709 231 782 256 31 11 66 22 77 24 11 2 29 9 40 15 12 6 21 8 21 4 0
-3 6 -2 13 4 6 5 28 13 47 17 19 4 40 10 45 13 6 4 16 7 23 8 8 2 21 6 30 10
9 4 19 8 22 8 21 6 399 129 415 136 15 7 294 97 325 105 3 1 12 4 20 8 21 8
153 51 165 53 14 3 532 172 583 190 23 9 42 21 43 27 0 7 2 37 4 67 6 83 15
320 12 319 -1 0 -60 -16 -132 -35z"/>
</g>
</svg>
