<svg width="334" height="132" viewBox="0 0 334 132" fill="none" xmlns="http://www.w3.org/2000/svg">
    <path d="M5.10938 98.3852L20.2094 93.8852L15.2094 127.085L11.4094 128.185L15.9094 98.2852L8.40938 100.485L3.90937 130.385L0.109375 131.585L5.10938 98.3852Z" fill="white"/>
    <path d="M21.1096 123.085C20.2096 121.585 20.0096 119.085 20.6096 115.585L22.5096 102.985C23.0096 99.5852 24.0096 96.7852 25.4096 94.5852C26.8096 92.4852 28.9096 90.9852 31.6096 90.1852C34.3096 89.3852 36.1096 89.6852 36.9096 91.1852C37.8096 92.5852 38.0096 95.0852 37.5096 98.4852L35.6096 111.085C35.1096 114.485 34.1096 117.385 32.6096 119.585C31.1096 121.785 29.1096 123.285 26.4096 124.085C23.8096 124.885 22.0096 124.585 21.1096 123.085ZM30.2096 118.085C30.8096 116.885 31.3096 115.285 31.6096 113.285L33.8096 98.6852C34.1096 96.6852 34.1096 95.2852 33.7096 94.3852C33.3096 93.5852 32.5096 93.3852 31.0096 93.7852C29.6096 94.1852 28.5096 94.9852 27.9096 96.0852C27.3096 97.1852 26.8096 98.7852 26.5096 100.785L24.3096 115.385C24.0096 117.385 24.0096 118.885 24.4096 119.785C24.7096 120.685 25.6096 120.885 27.1096 120.385C28.5096 119.985 29.5096 119.285 30.2096 118.085Z" fill="white"/>
    <path d="M36.5094 117.585L37.8094 117.185C38.7094 116.185 39.5094 114.985 40.2094 113.585C40.9094 112.185 41.7094 110.185 42.5094 107.285C43.3094 104.485 44.2094 100.685 45.1094 95.7852L47.0094 85.7852L58.5094 82.3852L54.1094 112.385L56.7094 111.585L55.3094 120.885L52.3094 121.785L52.9094 115.885L39.3094 119.985L38.1094 126.085L35.1094 126.985L36.5094 117.585ZM50.3094 113.485L54.3094 87.0852L49.9094 88.3852L48.5094 95.9852C47.6094 100.685 46.8094 104.285 46.1094 106.885C45.3094 109.485 44.6094 111.385 44.0094 112.585C43.3094 113.785 42.5094 114.985 41.5094 116.185L50.3094 113.485Z" fill="white"/>
    <path d="M60.7092 111.285C59.8092 109.785 59.6092 107.285 60.2092 103.785L62.1092 91.1852C62.6092 87.7852 63.6092 84.9852 65.0092 82.7852C66.4092 80.6852 68.5092 79.1852 71.2092 78.3852C73.9092 77.5852 75.7092 77.8852 76.5092 79.3852C77.4092 80.7852 77.6092 83.2852 77.1092 86.6852L75.2092 99.2852C74.7092 102.685 73.7092 105.585 72.2092 107.785C70.7092 109.985 68.7092 111.485 66.0092 112.285C63.4092 113.185 61.6092 112.785 60.7092 111.285ZM69.7092 106.285C70.3092 105.085 70.8092 103.485 71.1092 101.485L73.3092 86.8852C73.6092 84.8852 73.6092 83.4852 73.2092 82.5852C72.8092 81.7852 72.0092 81.5852 70.5092 81.9852C69.1092 82.3852 68.0092 83.1852 67.4092 84.2852C66.8092 85.3852 66.3092 86.9852 66.0092 88.9852L63.8092 103.585C63.5092 105.685 63.5092 107.085 63.9092 107.985C64.2092 108.885 65.1092 109.085 66.6092 108.685C68.0092 108.285 69.1092 107.485 69.7092 106.285Z" fill="white"/>
    <path d="M82.4096 75.3852L94.2096 71.8852L93.7096 75.2852L85.7096 77.6852L84.1096 88.1852L84.9096 87.8852C87.0096 87.2852 88.6096 87.0852 89.8096 87.2852C91.0096 87.4852 91.8096 88.1852 92.2096 89.3852C92.6096 90.5852 92.6096 92.4852 92.3096 94.9852C91.8096 98.3852 90.7096 101.085 89.1096 102.985C87.5096 104.885 85.2096 106.385 82.2096 107.185L77.3096 108.685L82.4096 75.3852ZM82.8096 103.885C84.0096 103.485 85.0096 103.085 85.7096 102.585C86.4096 102.085 87.1096 101.285 87.5096 100.285C87.9096 99.2852 88.4096 97.8852 88.6096 96.0852C88.8096 94.4852 88.9096 93.3852 88.7096 92.5852C88.5096 91.7852 88.1096 91.2852 87.4096 91.0852C86.7096 90.8852 85.7096 90.9852 84.5096 91.3852L83.5096 91.6852L81.6096 104.385L82.8096 103.885Z" fill="white"/>
    <path d="M99.2095 70.3852L106.009 68.3852C108.409 67.6852 110.009 67.9852 110.809 69.1852C111.609 70.3852 111.809 72.5852 111.409 75.5852C111.009 78.2852 110.109 80.5852 108.709 82.3852C107.309 84.1852 105.509 85.4852 103.309 86.0852L100.309 86.9852L98.0095 102.485L94.2095 103.585L99.2095 70.3852ZM102.609 83.1852C103.709 82.8852 104.609 82.4852 105.309 81.9852C106.009 81.4852 106.509 80.8852 106.909 79.9852C107.309 79.1852 107.609 78.0852 107.809 76.6852C108.109 74.9852 108.109 73.7852 108.109 73.0852C108.009 72.3852 107.709 71.8852 107.109 71.7852C106.509 71.5852 105.609 71.7852 104.309 72.0852L102.509 72.5852L100.809 83.6852L102.609 83.1852Z" fill="white"/>
    <path d="M119.409 64.3852L123.109 63.2852L124.009 94.7852L120.409 95.8852V87.8852L114.809 89.5852L112.209 98.3852L108.609 99.4852L119.409 64.3852ZM120.309 84.6852V70.3852L115.809 85.9852L120.309 84.6852Z" fill="white"/>
    <path d="M133.409 63.5852L128.709 64.9852L129.209 61.5852L142.209 57.6852L141.709 61.0852L137.209 62.3852L132.709 92.1852L128.909 93.2852L133.409 63.5852Z" fill="white"/>
    <path d="M144.909 56.8852L148.709 55.7852L146.609 69.5852L147.709 69.2852C149.809 68.6852 151.409 68.4852 152.609 68.6852C153.809 68.8852 154.609 69.5852 155.009 70.7852C155.409 71.9852 155.409 73.8852 155.109 76.3852C154.609 79.7852 153.509 82.4852 151.909 84.3852C150.309 86.2852 148.009 87.7852 145.009 88.5852L139.909 90.0852L144.909 56.8852ZM145.509 85.1852C146.709 84.7852 147.709 84.3852 148.509 83.7852C149.309 83.2852 149.909 82.4852 150.409 81.3852C150.909 80.3852 151.309 78.9852 151.509 77.1852C151.709 75.6852 151.809 74.4852 151.609 73.6852C151.409 72.8852 151.009 72.3852 150.309 72.1852C149.609 71.9852 148.609 72.0852 147.409 72.4852L146.209 72.8852L144.309 85.5852L145.509 85.1852Z" fill="white"/>
    <path d="M171.909 52.0852L167.209 53.4852L167.709 50.0852L180.709 46.1852L180.209 49.5852L175.709 50.8852L171.209 80.6852L167.409 81.7852L171.909 52.0852Z" fill="white"/>
    <path d="M183.509 45.3852L190.309 43.3852C192.709 42.6852 194.309 42.9852 195.109 44.1852C195.909 45.3852 196.109 47.5852 195.709 50.5852C195.309 53.2852 194.409 55.5852 193.009 57.3852C191.609 59.1852 189.809 60.4852 187.609 61.0852L184.609 61.9852L182.309 77.4852L178.509 78.5852L183.509 45.3852ZM186.909 58.1852C188.009 57.8852 188.909 57.4852 189.609 56.9852C190.309 56.4852 190.809 55.8852 191.209 54.9852C191.609 54.0852 191.909 53.0852 192.109 51.6852C192.409 49.9852 192.409 48.7852 192.409 48.0852C192.309 47.3852 192.009 46.8852 191.409 46.7852C190.809 46.6852 189.909 46.7852 188.609 47.1852L186.809 47.6852L185.109 58.6852L186.909 58.1852Z" fill="white"/>
    <path d="M199.709 40.5852L210.409 37.3852L209.909 40.7852L203.109 42.7852L201.409 53.7852L206.909 52.1852L206.409 55.4852L200.909 57.0852L199.109 69.2852L206.009 67.2852L205.509 70.5852L194.709 73.7852L199.709 40.5852Z" fill="white"/>
    <path d="M213.609 36.4852L217.409 35.3852L215.209 49.7852L222.309 47.6852L224.509 33.2852L228.309 32.1852L223.309 65.3852L219.509 66.4852L221.809 50.9852L214.709 53.0852L212.409 68.5852L208.609 69.6852L213.609 36.4852Z" fill="white"/>
    <path d="M232.609 30.7852L236.009 29.7852L232.509 52.7852L244.009 27.3852L246.809 26.5852L241.809 59.7852L238.409 60.7852L241.909 37.3852L230.409 63.0852L227.509 63.8852L232.609 30.7852Z" fill="white"/>
    <path d="M251.109 25.2852L257.909 23.2852C260.309 22.5852 261.909 22.8852 262.709 24.0852C263.509 25.2852 263.709 27.4852 263.309 30.4852C262.909 33.1852 262.009 35.4852 260.609 37.2852C259.209 39.0852 257.409 40.3852 255.209 40.9852L252.209 41.8852L249.909 57.3852L246.109 58.4852L251.109 25.2852ZM254.509 38.0852C255.609 37.7852 256.509 37.3852 257.209 36.8852C257.909 36.3852 258.409 35.7852 258.809 34.8852C259.209 34.0852 259.509 32.9852 259.709 31.5852C260.009 29.8852 260.009 28.6852 260.009 27.9852C259.909 27.2852 259.609 26.7852 259.009 26.6852C258.409 26.4852 257.509 26.6852 256.209 26.9852L254.409 27.4852L252.709 38.5852L254.509 38.0852Z" fill="white"/>
    <path d="M264.009 50.8852C263.109 49.3852 262.909 46.8852 263.509 43.3852L265.409 30.7852C265.909 27.3852 266.909 24.5852 268.309 22.3852C269.709 20.2852 271.809 18.7852 274.509 17.9852C277.209 17.1852 279.009 17.4852 279.809 18.9852C280.709 20.3852 280.909 22.8852 280.409 26.2852L278.509 38.8852C278.009 42.2852 277.009 45.1852 275.509 47.3852C274.009 49.5852 272.009 51.0852 269.309 51.8852C266.709 52.6852 264.909 52.3852 264.009 50.8852ZM273.009 45.8852C273.609 44.6852 274.109 43.0852 274.409 41.0852L276.609 26.4852C276.909 24.4852 276.909 23.0852 276.509 22.1852C276.109 21.3852 275.309 21.1852 273.809 21.5852C272.409 21.9852 271.309 22.7852 270.709 23.8852C270.109 24.9852 269.609 26.5852 269.309 28.5852L267.109 43.1852C266.809 45.1852 266.809 46.6852 267.209 47.5852C267.509 48.4852 268.409 48.6852 269.909 48.1852C271.309 47.8852 272.409 47.0852 273.009 45.8852Z" fill="white"/>
    <path d="M285.709 14.9852L292.009 13.0852C294.509 12.3852 296.209 12.4852 297.209 13.4852C298.209 14.4852 298.509 16.3852 298.009 19.2852C297.409 23.4852 295.709 26.2852 293.009 27.4852C294.609 27.4852 295.609 27.9852 296.109 29.1852C296.609 30.3852 296.709 32.0852 296.409 34.4852C295.909 37.4852 295.009 39.9852 293.609 41.9852C292.209 43.9852 290.309 45.3852 287.909 46.0852L280.609 48.2852L285.709 14.9852ZM287.609 42.9852C288.709 42.6852 289.609 42.1852 290.309 41.5852C291.009 40.9852 291.509 40.1852 291.909 39.2852C292.309 38.3852 292.609 37.0852 292.809 35.5852C293.109 33.4852 293.009 31.9852 292.409 31.0852C291.809 30.2852 290.709 30.0852 289.109 30.5852L286.809 31.2852L285.009 43.7852L287.609 42.9852ZM289.709 27.0852C291.309 26.5852 292.409 25.8852 293.209 24.8852C293.909 23.8852 294.509 22.3852 294.809 20.2852C295.009 18.7852 295.009 17.7852 294.709 17.1852C294.409 16.5852 293.909 16.2852 293.209 16.3852C292.509 16.3852 291.409 16.6852 289.909 17.0852L289.009 17.3852L287.409 27.7852L289.709 27.0852Z" fill="white"/>
    <path d="M303.509 9.68522L307.309 8.58522L305.109 23.2852L306.509 22.8852L313.709 6.68522L317.509 5.58522L309.709 22.9852L313.209 38.5852L309.409 39.6852L306.309 25.1852L304.809 25.5852L302.309 41.7852L298.509 42.8852L303.509 9.68522Z" fill="white"/>
    <path d="M315.109 39.3852C315.709 39.2852 316.209 39.1852 316.709 38.9852C317.809 38.6852 318.609 38.1852 319.109 37.6852C319.609 37.0852 319.909 36.3852 320.009 35.3852C320.109 34.8852 320.109 33.9852 320.109 32.8852L319.109 4.98522L322.709 3.88522L322.909 17.3852L322.709 27.4852L325.509 16.6852L329.709 1.88522L333.409 0.785217L324.109 31.8852L323.609 33.7852C323.009 35.7852 322.509 37.2852 322.109 38.2852C321.709 39.2852 321.009 40.0852 320.209 40.7852C319.309 41.4852 318.109 42.0852 316.409 42.5852C316.109 42.6852 315.509 42.7852 314.609 43.0852L315.109 39.3852Z" fill="white"/>
</svg>
